<svg width="253" height="31" viewBox="0 0 253 31" fill="none" xmlns="http://www.w3.org/2000/svg">
<path d="M3.80176 30V6.39258H0.332031V0.78125H13.1152V6.39258H9.64551V30H3.80176ZM17.0332 30L13.8955 0.78125H19.6064L21.2168 19.2256L22.8604 0.78125H28.3057L29.8662 19.2256L31.4268 0.78125H37.2041L34.0166 30H27.0107L25.5498 15.9385L24.1553 30H17.0332ZM38.6816 30V0.78125H44.3262V30H38.6816ZM49.1572 30V6.39258H45.6875V0.78125H58.4707V6.39258H55.001V30H49.1572ZM62.6045 30V6.39258H59.1348V0.78125H71.918V6.39258H68.4482V30H62.6045ZM73.5449 30V0.78125H85.2324V6.42578H79.4883V12.1201H85V17.6152H79.4883V24.3057H85.6143V30H73.5449ZM87.5566 30V0.78125H96.5215C98.0156 0.78125 99.1445 1.12435 99.9082 1.81055C100.672 2.48568 101.181 3.4375 101.436 4.66602C101.701 5.88346 101.834 7.31673 101.834 8.96582C101.834 10.5596 101.629 11.8324 101.22 12.7842C100.821 13.736 100.063 14.3945 98.9453 14.7598C99.8639 14.9479 100.506 15.4072 100.871 16.1377C101.247 16.8571 101.436 17.7923 101.436 18.9434V30H95.6748V18.5615C95.6748 17.7093 95.4977 17.1836 95.1436 16.9844C94.8005 16.7741 94.2415 16.6689 93.4668 16.6689V30H87.5566ZM93.5 11.6055H94.9111C95.7191 11.6055 96.123 10.7256 96.123 8.96582C96.123 7.82585 96.0345 7.07878 95.8574 6.72461C95.6803 6.37044 95.3483 6.19336 94.8613 6.19336H93.5V11.6055ZM110.234 30.2656C108.917 30.2656 107.716 30.0111 106.632 29.502C105.547 28.9928 104.684 28.2402 104.042 27.2441C103.411 26.237 103.096 25.0029 103.096 23.542V16.2207H108.873V23.1934C108.873 23.7025 108.973 24.112 109.172 24.4219C109.382 24.7318 109.714 24.8867 110.168 24.8867C111.042 24.8867 111.479 24.3499 111.479 23.2764V0.78125H117.373V22.6953C117.373 24.2448 117.069 25.5895 116.46 26.7295C115.851 27.8584 115.01 28.7327 113.937 29.3525C112.863 29.9613 111.629 30.2656 110.234 30.2656ZM126.604 30.2656C124.268 30.2656 122.481 29.5628 121.241 28.1572C120.013 26.7406 119.398 24.6986 119.398 22.0312V8.15234C119.398 5.65104 120.007 3.75293 121.225 2.45801C122.453 1.16309 124.246 0.515625 126.604 0.515625C128.961 0.515625 130.748 1.16309 131.966 2.45801C133.194 3.75293 133.809 5.65104 133.809 8.15234V22.0312C133.809 24.6986 133.189 26.7406 131.949 28.1572C130.721 29.5628 128.939 30.2656 126.604 30.2656ZM126.653 24.8867C127.539 24.8867 127.981 24.029 127.981 22.3135V8.05273C127.981 6.61393 127.55 5.89453 126.687 5.89453C125.713 5.89453 125.226 6.63053 125.226 8.10254V22.3467C125.226 23.2542 125.336 23.9072 125.558 24.3057C125.779 24.693 126.144 24.8867 126.653 24.8867ZM136.166 30V0.78125H144.085C146.21 0.78125 147.754 1.30143 148.717 2.3418C149.691 3.37109 150.178 5.07552 150.178 7.45508V8.7334C150.178 10.1058 149.929 11.2181 149.431 12.0703C148.944 12.9225 148.197 13.4814 147.189 13.7471C148.507 14.0791 149.386 14.8594 149.829 16.0879C150.283 17.3053 150.51 18.7939 150.51 20.5537C150.51 22.4463 150.333 24.1009 149.979 25.5176C149.624 26.9342 148.982 28.0355 148.053 28.8213C147.123 29.6071 145.8 30 144.085 30H136.166ZM141.877 11.7881H143.072C143.615 11.7881 143.963 11.5778 144.118 11.1572C144.273 10.7367 144.351 10.2331 144.351 9.64648V6.70801C144.351 5.76725 143.936 5.29688 143.105 5.29688H141.877V11.7881ZM142.458 24.8535C143.974 24.8535 144.732 24.1341 144.732 22.6953V19.043C144.732 18.2129 144.605 17.5599 144.351 17.084C144.107 16.597 143.642 16.3535 142.956 16.3535H141.877V24.8203C142.12 24.8424 142.314 24.8535 142.458 24.8535ZM159.375 30.2656C156.708 30.2656 154.782 29.6016 153.598 28.2734C152.424 26.9453 151.838 24.8314 151.838 21.9316V19.0762H157.615V22.7285C157.615 23.4036 157.715 23.9349 157.914 24.3223C158.124 24.6986 158.484 24.8867 158.993 24.8867C159.524 24.8867 159.89 24.7318 160.089 24.4219C160.299 24.112 160.404 23.6029 160.404 22.8945C160.404 21.998 160.316 21.251 160.139 20.6533C159.962 20.0446 159.652 19.4691 159.209 18.9268C158.777 18.3734 158.174 17.7314 157.399 17.001L154.776 14.5107C152.817 12.6624 151.838 10.5485 151.838 8.16895C151.838 5.67871 152.413 3.7806 153.564 2.47461C154.727 1.16862 156.403 0.515625 158.595 0.515625C161.273 0.515625 163.171 1.22949 164.289 2.65723C165.418 4.08496 165.982 6.25423 165.982 9.16504H160.039V7.15625C160.039 6.75781 159.923 6.44792 159.69 6.22656C159.469 6.00521 159.165 5.89453 158.777 5.89453C158.312 5.89453 157.969 6.02734 157.748 6.29297C157.538 6.54753 157.433 6.87956 157.433 7.28906C157.433 7.69857 157.543 8.14128 157.765 8.61719C157.986 9.0931 158.423 9.64095 159.076 10.2607L162.446 13.498C163.121 14.14 163.741 14.8206 164.306 15.54C164.87 16.2484 165.324 17.0785 165.667 18.0303C166.01 18.971 166.182 20.1221 166.182 21.4834C166.182 24.2282 165.673 26.3809 164.654 27.9414C163.647 29.4909 161.887 30.2656 159.375 30.2656ZM172.822 23.3096C171.173 23.3096 169.895 22.7949 168.987 21.7656C168.08 20.7253 167.626 19.3695 167.626 17.6982C167.626 16.016 168.08 14.6602 168.987 13.6309C169.895 12.6016 171.173 12.0869 172.822 12.0869C174.471 12.0869 175.75 12.6016 176.657 13.6309C177.576 14.6602 178.035 16.016 178.035 17.6982C178.035 19.3695 177.576 20.7253 176.657 21.7656C175.75 22.7949 174.471 23.3096 172.822 23.3096ZM182.418 30L179.28 0.78125H184.991L186.602 19.2256L188.245 0.78125H193.69L195.251 19.2256L196.812 0.78125H202.589L199.401 30H192.396L190.935 15.9385L189.54 30H182.418ZM211.305 30.2656C208.969 30.2656 207.182 29.5628 205.942 28.1572C204.714 26.7406 204.1 24.6986 204.1 22.0312V8.15234C204.1 5.65104 204.708 3.75293 205.926 2.45801C207.154 1.16309 208.947 0.515625 211.305 0.515625C213.662 0.515625 215.45 1.16309 216.667 2.45801C217.896 3.75293 218.51 5.65104 218.51 8.15234V22.0312C218.51 24.6986 217.89 26.7406 216.65 28.1572C215.422 29.5628 213.64 30.2656 211.305 30.2656ZM211.354 24.8867C212.24 24.8867 212.683 24.029 212.683 22.3135V8.05273C212.683 6.61393 212.251 5.89453 211.388 5.89453C210.414 5.89453 209.927 6.63053 209.927 8.10254V22.3467C209.927 23.2542 210.037 23.9072 210.259 24.3057C210.48 24.693 210.845 24.8867 211.354 24.8867ZM220.867 30V0.78125H229.832C231.326 0.78125 232.455 1.12435 233.219 1.81055C233.982 2.48568 234.492 3.4375 234.746 4.66602C235.012 5.88346 235.145 7.31673 235.145 8.96582C235.145 10.5596 234.94 11.8324 234.53 12.7842C234.132 13.736 233.374 14.3945 232.256 14.7598C233.174 14.9479 233.816 15.4072 234.182 16.1377C234.558 16.8571 234.746 17.7923 234.746 18.9434V30H228.985V18.5615C228.985 17.7093 228.808 17.1836 228.454 16.9844C228.111 16.7741 227.552 16.6689 226.777 16.6689V30H220.867ZM226.811 11.6055H228.222C229.03 11.6055 229.434 10.7256 229.434 8.96582C229.434 7.82585 229.345 7.07878 229.168 6.72461C228.991 6.37044 228.659 6.19336 228.172 6.19336H226.811V11.6055ZM237.07 30V0.78125H242.848V12.4854L245.57 0.78125H251.447L248.177 14.1621L252.128 30H246.068L242.881 15.8555V30H237.07Z" fill="white"/>
</svg>
